<svg width="93" height="93" viewBox="0 0 93 93" fill="none" xmlns="http://www.w3.org/2000/svg">
    <rect width="93" height="93" fill="#FCF9E8" />
    <path
        d="M52.1973 67.1C60.1973 67.1 64.4973 57.4 58.9973 51.7L58.8973 51.6L46.8973 39.6L34.8973 51.6L34.7973 51.7C29.1973 57.4 33.5973 67.1 41.5973 67.1H52.1973Z"
        fill="#201B21" />
    <path
        d="M34.8973 43.4L36.3973 44.9L46.8973 34.4L57.3973 44.9L58.8973 43.4C62.6973 39.6 64.1973 34.7 63.7973 30.1C63.5973 28.3 62.0973 27 60.2973 27H33.5974C31.7974 27 30.1974 28.3 30.0974 30.1C29.5974 34.7 30.9973 39.5 34.8973 43.4Z"
        fill="#201B21" />
</svg>